<svg xmlns="http://www.w3.org/2000/svg" width="328" height="50" viewBox="0 0 328 50">
  <g id="logo" transform="translate(-31.8 -33.21)">
    <g id="Group_155" data-name="Group 155" transform="translate(0 5)">
      <path id="Path_291" data-name="Path 291" d="M87.249,34.26H75.244L64.5,46.129V34.26H53.661V64.54c2.475-.374,5.176-.72,8.185-1,.86-.093,1.747-.187,2.653-.3V58.886l2.476-2.757,4.756,6.3c3.625-.383,7.521-.748,11.614-.925l.438-.028L74.168,48.652Z" transform="translate(-1.436 -0.396)" fill="#3c3c3b"/>
      <path id="Path_292" data-name="Path 292" d="M91.56,32.16V61l6.6-.411c1.327-.056,2.644-.1,3.961-.14V32.16Z" transform="translate(-3.925 -0.258)" fill="#3c3c3b"/>
      <path id="Path_293" data-name="Path 293" d="M107.775,41.014V60.1h.253c1.55-.028,3.111-.056,4.7-.093l1.58-.028c1.335-.028,2.681-.056,4.026-.065v-18.9Zm9.9-11.355a6.925,6.925,0,0,0-4.625-1.449,6.781,6.781,0,0,0-4.6,1.514,5.109,5.109,0,0,0,0,7.71,6.739,6.739,0,0,0,4.6,1.523,6.606,6.606,0,0,0,4.625-1.57,5.119,5.119,0,0,0,1.728-3.991A4.625,4.625,0,0,0,117.679,29.659Z" transform="translate(-4.92 0)" fill="#3c3c3b"/>
      <path id="Path_294" data-name="Path 294" d="M165.381,44.26a9.852,9.852,0,0,0-7.409-2.85,11.547,11.547,0,0,0-4.811,1,10.418,10.418,0,0,0-3.737,2.878,8.127,8.127,0,0,0-3.364-2.925,10.82,10.82,0,0,0-4.625-.953,9.8,9.8,0,0,0-7.241,2.85V41.877H124.15V60.812c2.832.047,6.635.112,7.3.121,1.074.019,2.167.028,3.261.056V54.961a5.591,5.591,0,0,1,.916-3.551,2.945,2.945,0,0,1,2.4-1.121c1.906,0,2.85,1.458,2.85,4.392v6.486c.756.028,1.523.065,2.28.1,2.671.1,5.419.234,8.277.383V54.961a5.6,5.6,0,0,1,.917-3.551,2.944,2.944,0,0,1,2.4-1.121c1.906,0,2.851,1.458,2.851,4.392V62c3.335.187,6.83.411,10.558.673V52.859Q168.157,47.111,165.381,44.26Z" transform="translate(-6.066 -0.864)" fill="#3c3c3b"/>
      <path id="Path_295" data-name="Path 295" d="M197.784,44.419q-3.544-3.014-10.277-3.009a25.6,25.6,0,0,0-6.185.766,18.527,18.527,0,0,0-5.307,2.131l3.364,6.963a9.97,9.97,0,0,1,3.037-1.477,12.178,12.178,0,0,1,3.5-.533c2.867,0,4.475.991,4.811,2.991h-4.25q-5.888,0-8.784,1.963a6.518,6.518,0,0,0-2.9,5.748,7.809,7.809,0,0,0,.57,2.981c.486.028.981.065,1.476.1q7.274.547,14.641,1.1a.689.689,0,0,0,.037-.075v.084q4.905.364,9.81.738V53.7Q201.336,47.433,197.784,44.419Zm-7.007,14.7a3.528,3.528,0,0,1-1.307,1.822,3.492,3.492,0,0,1-2.01.607,2.7,2.7,0,0,1-1.84-.589,1.859,1.859,0,0,1-.683-1.467c0-1.439,1.075-2.15,3.223-2.15h2.616Z" transform="translate(-9.393 -0.864)" fill="#3c3c3b"/>
      <path id="Path_296" data-name="Path 296" d="M233.448,43.655a10.286,10.286,0,0,0-7.6-2.85,10.68,10.68,0,0,0-7.194,2.523V32.16H208.1V64.636c.421.028.832.065,1.252.093,3.121.262,6.261.449,9.306.645V54.823a5.821,5.821,0,0,1,1.1-3.907,3.656,3.656,0,0,1,2.867-1.234c2.094,0,3.131,1.458,3.131,4.392V65.833c3.559.243,7.1.411,10.558.57V52.253Q236.317,46.506,233.448,43.655Z" transform="translate(-11.58 -0.258)" fill="#3c3c3b"/>
      <path id="Path_297" data-name="Path 297" d="M270.074,47.784a12.817,12.817,0,0,0-5.278-4.692,18.289,18.289,0,0,0-15.324,0,12.96,12.96,0,0,0-5.306,4.692,13.192,13.192,0,0,0,0,13.691,13.089,13.089,0,0,0,5.306,4.72,15.7,15.7,0,0,0,4.458,1.449c1.831.047,3.663.093,5.465.131a15.818,15.818,0,0,0,5.4-1.579,12.944,12.944,0,0,0,5.278-4.72,13.353,13.353,0,0,0,0-13.691ZM260.1,58.344a4.011,4.011,0,0,1-5.979,0,5.451,5.451,0,0,1-1.168-3.71,5.367,5.367,0,0,1,1.168-3.692,4.069,4.069,0,0,1,5.979,0,5.362,5.362,0,0,1,1.168,3.692A5.446,5.446,0,0,1,260.1,58.344Z" transform="translate(-13.823 -0.864)" fill="#3c3c3b"/>
      <path id="Path_298" data-name="Path 298" d="M318.831,44.26a9.865,9.865,0,0,0-7.408-2.85,11.527,11.527,0,0,0-4.813,1,10.435,10.435,0,0,0-3.737,2.878,8.116,8.116,0,0,0-3.363-2.925,10.857,10.857,0,0,0-4.626-.953,9.8,9.8,0,0,0-7.241,2.85V41.877H277.6V67.438h10.558V54.961a5.591,5.591,0,0,1,.917-3.551,2.945,2.945,0,0,1,2.4-1.121c1.906,0,2.85,1.458,2.85,4.392V67.438h10.558V54.961a5.6,5.6,0,0,1,.915-3.551,2.935,2.935,0,0,1,2.4-1.121c1.907,0,2.85,1.458,2.85,4.392V67.438h7.7l2.859-.14V52.859Q321.607,47.111,318.831,44.26Z" transform="translate(-16.145 -0.864)" fill="#3c3c3b"/>
      <path id="Path_299" data-name="Path 299" d="M357.194,54.634a13.086,13.086,0,0,0-1.887-7.149,12.124,12.124,0,0,0-5.093-4.533,17.076,17.076,0,0,0-14.482.14,12.92,12.92,0,0,0-5.185,4.692,13.208,13.208,0,0,0,.019,13.673,12.914,12.914,0,0,0,5.419,4.738c.373.178.747.346,1.14.5,4.074-.2,7.923-.355,11.5-.5,1.392-.1,2.748-.2,4.056-.28a11.358,11.358,0,0,0,2.6-2.112l-5.512-5.561a10.175,10.175,0,0,1-2.495,1.449,8.3,8.3,0,0,1-2.831.421,6.365,6.365,0,0,1-3.27-.776,4.317,4.317,0,0,1-1.869-2.215h17.752C357.147,55.615,357.194,54.784,357.194,54.634Zm-18.08-2.617a4.271,4.271,0,0,1,1.4-2.523,4.1,4.1,0,0,1,2.71-.888,4.02,4.02,0,0,1,2.709.907,4.245,4.245,0,0,1,1.4,2.5Z" transform="translate(-19.498 -0.864)" fill="#3c3c3b"/>
      <path id="Path_300" data-name="Path 300" d="M359.8,69.912s-4.746.9-13.248,2.318c-4.26.71-9.427,1.589-15.454,2.5-6.12.766-13.062,1.635-20.714,2.5q-2.873.322-5.858.673-3.043.252-6.2.514c-4.222.327-8.595.664-13.09,1-4.484.4-9.184.561-13.976.738-4.8.206-9.727.364-14.734.523-10.025-.009-20.48.178-30.964-.3-5.251-.178-10.576-.308-15.789-.673-5.213-.336-10.568-.579-15.725-.991s-10.325-.813-15.464-1.224q-7.6-.673-15.108-1.327-7.4-.645-14.668-1.271c-4.83-.4-9.567-.7-14.239-1.084-4.681-.421-9.268-.542-13.773-.841-2.252-.121-4.484-.252-6.68-.374q-3.32-.1-6.54-.187c-4.306-.122-8.52-.271-12.6-.346-4.092,0-8.045.009-11.839.009-1.905,0-3.783,0-5.606.009s-3.559.121-5.3.159c-3.465.1-6.764.2-9.856.3-6.223.112-11.763.5-16.276.766-9.064.533-14.3.748-14.3.748s4.8-.878,13.314-2.262c4.27-.683,9.314-1.6,15.658-2.2,3.794-.383,7.9-.916,12.314-1.355,2.868-.28,5.868-.533,9-.664l3.111-.2c.8-.056,1.616-.1,2.438-.15,2.234-.15,4.522-.29,6.849-.439,1.224-.056,2.456-.093,3.709-.122,1.531-.046,3.093-.064,4.662-.093,1.663-.037,3.345-.065,5.044-.1,1.814-.028,3.663-.075,5.512-.093.505-.009,1.009-.009,1.514-.009,1.047.019,2.094.037,3.158.047,1.327.028,2.673.047,4.019.065l6.54.112c2.046.037,4.111.093,6.167.178.682.028,1.373.065,2.055.1,2.822.112,5.662.243,8.5.393q3.069.168,6.166.346,5.256.308,10.557.682c1.691.112,3.383.234,5.074.355,1.214.093,2.419.178,3.643.271,2.038.15,4.075.308,6.13.458,6.811.514,13.678,1.037,20.536,1.551,5.044.421,10.025.664,15.024,1.009s9.95.579,14.884.794c9.848.579,19.574.626,29.019.925q7.093-.014,13.94-.019,3.421,0,6.774.009c2.243.009,4.438-.121,6.615-.159q6.56-.154,12.735-.318c2.065-.037,4.1-.084,6.093-.122,1.981-.1,3.924-.2,5.83-.3,7.623-.411,14.678-.7,20.974-.963,6.177-.458,11.642-.785,16.145-1.075C354.522,70.155,359.8,69.912,359.8,69.912Z" transform="translate(0 -2.497)" fill="#e63323"/>
    </g>
  </g>
</svg>
